<?xml version="1.0" standalone="no"?>
<!DOCTYPE svg PUBLIC "-//W3C//DTD SVG 1.1//EN" "http://www.w3.org/Graphics/SVG/1.1/DTD/svg11.dtd" >
<svg xmlns="http://www.w3.org/2000/svg">
<metadata></metadata>
<defs>
<font id="iconsregular" horiz-adv-x="1228" >
<font-face units-per-em="2048" ascent="1638" descent="-410" />
<missing-glyph horiz-adv-x="500" />
<glyph horiz-adv-x="2048" />
<glyph horiz-adv-x="2048" />
<glyph unicode="&#xd;" horiz-adv-x="2048" />
<glyph unicode=" " />
<glyph unicode="!" />
<glyph unicode="&#x22;" />
<glyph unicode="#" />
<glyph unicode="$" />
<glyph unicode="%" />
<glyph unicode="&#x26;" />
<glyph unicode="'" />
<glyph unicode="(" />
<glyph unicode=")" />
<glyph unicode="*" />
<glyph unicode="+" />
<glyph unicode="," />
<glyph unicode="-" />
<glyph unicode="." />
<glyph unicode="/" />
<glyph unicode="0" />
<glyph unicode="1" />
<glyph unicode="2" />
<glyph unicode="3" />
<glyph unicode="4" />
<glyph unicode="5" />
<glyph unicode="6" />
<glyph unicode="7" />
<glyph unicode="8" />
<glyph unicode="9" />
<glyph unicode=":" />
<glyph unicode=";" />
<glyph unicode="&#x3c;" />
<glyph unicode="=" />
<glyph unicode="&#x3e;" />
<glyph unicode="?" />
<glyph unicode="@" />
<glyph unicode="A" horiz-adv-x="2129" d="M41 68q0 -156 109.5 -265.5t265.5 -109.5h704v801h-213v288h213v246q0 155 103 264q104 107 309 107q112 0 205 -10l-8 -271h-185h-5q-66 0 -91 -27.5t-25 -99.5v-209h314l-13 -288h-301v-801h291q157 0 264 110q111 108 111 265v1298q0 156 -111 264q-108 111 -264 111 h-1298q-155 0 -265 -110t-110 -265v-1298z" />
<glyph unicode="B" horiz-adv-x="2566" d="M41 319q0 61 8 136q13 122 49 217q5 32 11 43q13 53 51.5 82t97.5 32q30 0 41 29q79 213 254 379q22 19 22 49v10q0 37 21 65.5t68 59.5q127 81 254 121q186 62 368 62q224 0 443 -91q113 -44 202 -110q61 -43 61 -102q0 -12 -1 -19q0 -23 14 -37q126 -111 221 -282 q32 -75 41 -101q7 -24 39 -24q47 0 94.5 -31.5t53.5 -79.5q10 -46 26 -94q17 -54 25 -82q20 -122 20 -226q0 -183 -57 -337q-3 -15 -5 -30q-4 -21 -9 -32q-46 -100 -148 -100q-30 -2 -68 -2q-39 0 -67 -2q-21 0 -29 14q-20 20 -37 0q-18 -12 -41 -12q-16 0 -36 6 q-29 6 -29 41v899q-5 21 -1 36t21 23.5t36 8.5q21 0 38 -13l8 -6q19 -8 29.5 0t3.5 25q-45 97 -82 143q-65 102 -127 156q-18 13 -31 6q-21 -7 -44 -7q-43 0 -81 29q-225 150 -482 150q-22 0 -64 -2q-134 -6 -265 -64q-68 -24 -159 -84q-40 -28 -84 -28q-20 0 -41 6 q-12 5 -33 -6q-132 -132 -209 -301q-10 -20 1 -28.5t28 5.5q21 15 55 15q26 -3 36.5 -13.5t10.5 -34.5v-915q6 -22 0 -32t-23 -15.5t-32 -5.5q-28 0 -47 16q-11 11 -25 2q-22 -18 -63 -18h-129q-54 6 -94.5 47t-49.5 98q-1 24 -17 75l-11 34q-31 114 -31 247zM795 431 q0 26 26 52q25 27 56 27t59 -27l242 -241q8 -15 18 -15q6 4 5 16q-1 4 -1 7v520q0 64 60 82q14 2 20 2q49 0 74 -43q8 -21 8 -37v-555q21 11 29 27l229 227q34 39 72 39q6 0 16 -2q46 -8 60 -54q4 -12 3 -24q0 -31 -24 -55l-164 -168l-213 -213q-49 -49 -92 -49 q-29 0 -55 26l-373 367l-29 31q-26 31 -26 60z" />
<glyph unicode="C" horiz-adv-x="2347" d="M41 35q323 -209 713 -209q242 0 465 80q194 70 356.5 202t271.5 297.5t169.5 358t60.5 385.5v59q133 101 229 242q-135 -59 -266 -74q152 90 205 258q-141 -87 -295 -114q-138 147 -342 147q-125 0 -232 -62t-169 -169.5t-62 -233.5q0 -48 12 -106q-286 13 -533.5 141 t-424.5 346q-64 -106 -64 -235q0 -119 55.5 -220.5t151.5 -166.5q-113 3 -211 59v-4q0 -172 109 -299q111 -126 264 -160q-51 -14 -123 -14q-48 0 -86 8q43 -135 160 -229q122 -92 274 -95q-253 -198 -577 -198q-56 0 -111 6z" />
<glyph unicode="D" horiz-adv-x="2756" d="M41 471l37 -186q13 -13 26 -13q27 0 27 13l43 186l-43 193q0 10 -27 10q-16 0 -26 -10zM307 471l33 -289q0 -22 32 -22h4q10 0 18 4q10 5 9 18l37 289l-37 444q0 14 -15 20q-16 5 -32 -0.5t-16 -19.5zM575 471l27 -289q0 -22 37 -22t37 28l33 283l-33 594q0 27 -37 27 t-37 -27zM842 471l22 -283q0 -28 43 -28t43 28l27 283l-27 600q0 27 -43 27t-43 -27zM1110 471l16 -278q3 -33 48 -33q49 0 49 33l20 278l-20 684q0 39 -49 39q-36 0 -48 -39zM1378 199q0 -39 37 -39h957h16q128 0 225 94q103 103 103 238q0 131 -105 233q-98 98 -239 98 q-74 0 -134 -26q-18 221 -194 377q-176 159 -410 159q-118 0 -225 -39q-31 -12 -31 -37v-1058z" />
<glyph unicode="E" horiz-adv-x="2129" d="M41 88q0 -163 116 -279t279 -116h1258q164 0 278 117q117 114 117 278v1258q0 164 -117 278q-114 117 -278 117h-1258q-163 0 -279 -116t-116 -279v-1258zM641 866v203q254 83 291 383h203v-362h338v-224h-338v-366q0 -121 14 -160t59.5 -61.5t96.5 -22.5q111 0 217 70 v-224q-166 -77 -328 -77q-195 0 -301 94q-56 47 -75 97t-19 149v501h-158z" />
<glyph unicode="F" horiz-adv-x="1927" d="M41 486q0 -31 4 -56l70 -377q4 -41 39.5 -71.5t78.5 -30.5h1459q43 0 78.5 30.5t39.5 71.5l70 377q6 26 6 54q0 65 -35 143l-319 766q-49 94 -152 94h-209l37 -418h279l-524 -430l-521 430h275l41 418h-213q-102 0 -148 -94l-323 -766q-33 -65 -33 -141zM212 370 q0 38 25 67.5t66 29.5h1319q40 0 65 -29.5t26 -67.5q0 -9 -1 -14l-24 -151q-5 -43 -40 -75t-79 -32h-1213q-41 0 -75 32t-39 75l-29 151q-1 5 -1 14z" />
<glyph unicode="G" horiz-adv-x="1925" d="M41 221q0 -32 34.5 -65t67.5 -33h1639q33 0 67.5 33t34.5 65v754q0 41 -41 20l-786 -409q-35 -20 -94 -20q-60 0 -95 20l-786 409q-41 21 -41 -20v-754zM44 1272q0 -39 58 -72l199 -104l567 -305q34 -21 95 -21q59 0 94 21l567 305l199 104q34 15 49 45q12 21 12 36 q0 30 -53 30h-1733q-50 0 -53 -29q-1 -3 -1 -10z" />
<glyph unicode="H" horiz-adv-x="1638" d="M41 169q0 -95 69.5 -163t164.5 -68t163.5 68.5t68.5 162.5t-69 163q-66 69 -164 69q-96 0 -164.5 -69t-68.5 -163zM41 766q169 0 323 -66t265 -177t177 -264t66 -320h242q0 174 -54 337t-153 294.5t-230.5 230.5t-296 153t-339.5 54v-242zM41 1249q179 0 350 -47 t315 -131.5t265.5 -205.5t206 -264.5t131.5 -313.5t47 -348h241q0 211 -56 412.5t-156.5 372t-244.5 314.5t-314.5 244.5t-372 156.5t-412.5 56v-246z" />
<glyph unicode="I" horiz-adv-x="1597" d="M41 -36q0 -44 16 -83q31 -99 126 -129q37 -12 81 -12q66 0 142 27q107 40 174 117t67 169v1004l725 168v-770q-36 6 -71 6q-93 0 -185 -47t-135 -129q-30 -58 -30 -116q0 -42 16 -83q34 -99 129 -131q38 -12 80 -12q66 0 143 28q106 39 171.5 114.5t65.5 162.5v10v1442 l-1093 -238v-1212q-36 7 -77 7q-92 0 -183 -46.5t-133 -130.5q-29 -60 -29 -116z" />
<glyph unicode="J" horiz-adv-x="1843" d="M41 999q0 -189 143 -323l738 -676l737 676q143 134 143 323q0 123 -63.5 224.5t-167.5 158t-223 56.5q-183 0 -308 -119l-118 -107l-115 107q-131 119 -313 119q-185 0 -310 -119q-143 -131 -143 -320z" />
<glyph unicode="K" horiz-adv-x="1843" d="M41 995q0 -188 143 -319l738 -676l737 676q143 131 143 319q0 123 -63.5 224.5t-167.5 158t-223 56.5q-181 0 -312 -119l-114 -107l-119 107q-125 119 -307 119q-120 0 -224 -56.5t-167.5 -158t-63.5 -224.5zM205 995q0 129 79.5 206t211.5 77q111 0 209 -98l217 -189 l213 189q107 98 213 98q130 0 208 -78q78 -72 78 -205q0 -130 -86 -213l-626 -585l-627 585q-90 78 -90 213z" />
<glyph unicode="L" horiz-adv-x="1720" d="M41 283q0 -156 115 -270.5t274 -114.5q156 0 270 114l86 82q32 38 32 73q0 36 -32 71q-35 28 -73 28q-42 0 -70 -28l-86 -82q-54 -54 -129 -54t-128.5 53t-53.5 128q0 78 53 131l303 299q105 106 185 106q48 0 85 -37q35 -32 71 -32q35 0 73 32q32 32 32 74t-32 74 q-83 79 -188 88q-24 2 -35 2q-168 0 -334 -160l-303 -303q-115 -115 -115 -274zM676 569q0 -40 29 -69q103 -103 229 -103q156 0 307 148l324 323q114 114 114 275q0 156 -114 270q-111 114 -258 123h-22h-5q-134 0 -240 -102l-102 -103q-35 -38 -35 -72q0 -37 32.5 -68.5 t72.5 -31.5q35 0 73 29l103 102q55 43 109 43q10 0 15 -1q60 -6 113 -62q58 -49 58 -127q0 -73 -58 -131l-323 -320q-89 -89 -161 -89q-49 0 -89 40q-20 22 -52 27t-58 -7q-28 -11 -45 -35t-17 -50v-9z" />
<glyph unicode="M" horiz-adv-x="2129" d="M41 88q0 -163 116 -279t279 -116h1258q164 0 278 117q117 114 117 278v1258q0 164 -117 278q-114 117 -278 117h-1258q-163 0 -279 -116t-116 -279v-1258zM262 999l213 191q143 125 217 131q7 1 19 1q155 0 192 -235q3 -19 9 -54q53 -323 78 -404q35 -97 79 -101 q29 0 85.5 70.5t102.5 159t50 135.5q1 8 1 23q0 102 -100 102q-42 0 -108 -23q105 342 398 342h15q214 -6 214 -265q0 -18 -1 -28q-9 -213 -299 -583q-299 -387 -505 -387q-129 0 -217 235l-117 434q-65 236 -142 236q-14 0 -114 -70z" />
<glyph unicode="N" horiz-adv-x="1650" d="M41 297q0 80 10 266q6 89 70 146t158 59q211 10 546 10q336 0 547 -10q94 -2 157 -58.5t70 -146.5q11 -225 11 -266q0 -40 -11 -268q-7 -87 -70 -143.5t-157 -61.5q-192 -8 -547 -8q-357 0 -546 8q-94 5 -158 62t-70 143q-10 189 -10 268zM162 537h110v-541h107v541h113 v92h-330v-92zM174 1659h135l84 -311h10l80 311h135l-100 -303q-8 -8 -53 -154v-325h-131v311q-5 23 -55 155zM489 70q0 -80 68 -80q54 0 111 57v-51h92v467h-92v-354q-30 -35 -58 -35q-24 0 -24 30v359h-97v-393zM612 1024v297q0 69 48.5 108t127.5 39q74 0 120 -40.5 t46 -108.5v-297q0 -75 -46 -117.5t-126 -42.5q-76 0 -123 44.5t-47 117.5zM735 1012q0 -47 47 -47q52 0 52 47v315q0 26 -25 36q-25 12 -49.5 1t-24.5 -37v-315zM854 -4h96v37q44 -41 90 -41q86 0 86 102v258q0 117 -90 117q-46 0 -86 -43v203h-96v-633zM950 84v293 q18 18 41 18q39 0 39 -47v-246q0 -36 -33 -36q-26 0 -47 18zM1053 973v481h118v-442q0 -25 15 -34q15 -10 39 1t49 39v436h117v-577h-117v65q-72 -72 -137 -72q-84 0 -84 103zM1200 129q0 -67 36 -106t101 -39q142 0 142 145v35h-97v-41q0 -57 -43 -57q-41 0 -41 65v88h181 v119q0 63 -35 100t-98 37t-104.5 -38.5t-41.5 -98.5v-209zM1298 291v51q0 51 43 51q41 0 41 -51v-51h-84z" />
<glyph unicode="O" horiz-adv-x="2122" d="M39 745q0 -5 8 -14l10 -9q123 -160 357 -313q35 -24 114 -58t116 -59q-69 -5 -133 -35.5t-104 -65.5t-99 -89t-97 -82q17 4 68 18q42 12 69 12h4h7h9q71 0 142 15q76 16 177 48.5t144 43.5q2 0 6.5 1.5t7 2.5t6.5 1.5t6.5 0t5 -2t3.5 -4.5q13 -25 -19 -37 q-35 -14 -43 -18q-87 -40 -116 -137q-9 -22 -0.5 -34t30.5 0q25 15 73 30.5t83 35t56 54.5q21 30 36 30q12 0 20 -17q37 -79 46 -169q3 -24 5.5 -42t4 -28t4 -20.5t3.5 -14t4.5 -13.5t4.5 -14q3 -13 5.5 -20t7.5 -15.5t13 -12.5q4 -2 11 -2h4h5q10 1 14 7t3.5 15t-2.5 18 t-5.5 21t-4.5 18q-6 45 -22 152t-23 165q-7 29 8 38q9 4 16.5 -0.5t8.5 -11.5q12 -50 55 -90.5t107.5 -80t83.5 -55.5q15 -11 13 15q-4 42 -24 91q-15 27 -3.5 36t32.5 -1q22 -6 66 -22t69 -21q63 -11 301 -46q-77 112 -183.5 180t-251.5 119q188 28 361.5 103.5 t358.5 192.5q-86 18 -181 18q-260 0 -594 -131q-6 -3 -5 -2q205 168 296 404q93 248 187 439q1 3 5 10t4.5 9.5t-3.5 7.5q-14 17 -38 -1q-187 -123 -247 -170q-192 -148 -273 -319q-16 -35 -29 -72q-1 -9 -9.5 -14.5t-16.5 -6.5l-9 -1q1 8 3 20.5t4.5 38t1.5 34.5 q-3 243 -4 288q-4 210 -29 335q-6 37 -27 112q-22 76 -30 136q-4 29 -4 58q0 30 5 59l-13 9q-171 -396 -184 -737q-1 -20 -1 -42q0 -189 53 -567l7 -61q-10 32 -25.5 100t-33.5 119.5t-47 93.5q-56 80 -113 192q-91 170 -273 359q-15 17 -48.5 53t-53 57.5t-44.5 55 t-41 65.5q-1 2 -4 9.5t-4.5 9.5l-6 8t-9.5 3.5t-14 -3.5q23 -64 41.5 -195.5t39.5 -194.5q13 -39 125 -268q16 -37 65 -111t89 -130l41 -55q-14 8 -37.5 20.5t-95 44.5t-139.5 55.5t-157 40.5q-69 13 -127 13q-18 0 -34 -1q-6 -1 -6 -5z" />
<glyph unicode="P" horiz-adv-x="2091" d="M40 735q0 205 79.5 391.5t214 322t321 215.5t392.5 80q205 0 391 -80t320 -215.5t213.5 -322t79.5 -391.5q0 -204 -79.5 -390.5t-213.5 -321.5t-320 -215t-391 -80q-206 0 -392.5 80t-321 215t-214 321.5t-79.5 390.5zM665 735q0 -156 112 -266t270 -110q155 0 265 110 t110 266q0 157 -110 267.5t-265 110.5q-158 0 -270 -110.5t-112 -267.5zM924 725q0 -53 35 -88.5t88 -35.5q50 0 85 35.5t35 88.5q0 50 -35 85t-85 35q-52 0 -87.5 -35t-35.5 -85z" />
<glyph unicode="Q" />
<glyph unicode="R" />
<glyph unicode="S" />
<glyph unicode="T" />
<glyph unicode="U" />
<glyph unicode="V" />
<glyph unicode="W" />
<glyph unicode="X" />
<glyph unicode="Y" />
<glyph unicode="Z" />
<glyph unicode="[" />
<glyph unicode="\" />
<glyph unicode="]" />
<glyph unicode="^" />
<glyph unicode="_" />
<glyph unicode="`" />
<glyph unicode="a" />
<glyph unicode="b" />
<glyph unicode="c" />
<glyph unicode="d" />
<glyph unicode="e" />
<glyph unicode="f" />
<glyph unicode="g" />
<glyph unicode="h" />
<glyph unicode="i" />
<glyph unicode="j" />
<glyph unicode="k" />
<glyph unicode="l" />
<glyph unicode="m" />
<glyph unicode="n" />
<glyph unicode="o" />
<glyph unicode="p" />
<glyph unicode="q" />
<glyph unicode="r" />
<glyph unicode="s" />
<glyph unicode="t" />
<glyph unicode="u" />
<glyph unicode="v" />
<glyph unicode="w" />
<glyph unicode="x" />
<glyph unicode="y" />
<glyph unicode="z" />
<glyph unicode="{" />
<glyph unicode="|" />
<glyph unicode="}" />
<glyph unicode="~" />
<glyph unicode="&#xa0;" />
<glyph unicode="&#xa1;" />
<glyph unicode="&#xa2;" />
<glyph unicode="&#xa3;" />
<glyph unicode="&#xa5;" />
<glyph unicode="&#xa6;" />
<glyph unicode="&#xa7;" />
<glyph unicode="&#xa8;" />
<glyph unicode="&#xa9;" />
<glyph unicode="&#xaa;" />
<glyph unicode="&#xab;" />
<glyph unicode="&#xac;" />
<glyph unicode="&#xad;" />
<glyph unicode="&#xae;" />
<glyph unicode="&#xaf;" />
<glyph unicode="&#xb0;" />
<glyph unicode="&#xb1;" />
<glyph unicode="&#xb2;" />
<glyph unicode="&#xb3;" />
<glyph unicode="&#xb4;" />
<glyph unicode="&#xb6;" />
<glyph unicode="&#xb7;" />
<glyph unicode="&#xb8;" />
<glyph unicode="&#xb9;" />
<glyph unicode="&#xba;" />
<glyph unicode="&#xbb;" />
<glyph unicode="&#xbc;" />
<glyph unicode="&#xbd;" />
<glyph unicode="&#xbe;" />
<glyph unicode="&#xbf;" />
<glyph unicode="&#xc0;" horiz-adv-x="2129" d="M41 68q0 -156 109.5 -265.5t265.5 -109.5h704v801h-213v288h213v246q0 155 103 264q104 107 309 107q112 0 205 -10l-8 -271h-185q-70 1 -95.5 -27t-25.5 -100v-209h314l-13 -288h-301v-801h291q157 0 264 110q111 108 111 265v1298q0 156 -111 264q-108 111 -264 111 h-1298q-155 0 -265 -110t-110 -265v-1298z" />
<glyph unicode="&#xc1;" horiz-adv-x="2129" d="M41 68q0 -156 109.5 -265.5t265.5 -109.5h704v801h-213v288h213v246q0 155 103 264q104 107 309 107q112 0 205 -10l-8 -271h-185q-70 1 -95.5 -27t-25.5 -100v-209h314l-13 -288h-301v-801h291q157 0 264 110q111 108 111 265v1298q0 156 -111 264q-108 111 -264 111 h-1298q-155 0 -265 -110t-110 -265v-1298z" />
<glyph unicode="&#xc2;" horiz-adv-x="2129" d="M41 68q0 -156 109.5 -265.5t265.5 -109.5h704v801h-213v288h213v246q0 155 103 264q104 107 309 107q112 0 205 -10l-8 -271h-185q-70 1 -95.5 -27t-25.5 -100v-209h314l-13 -288h-301v-801h291q157 0 264 110q111 108 111 265v1298q0 156 -111 264q-108 111 -264 111 h-1298q-155 0 -265 -110t-110 -265v-1298z" />
<glyph unicode="&#xc3;" horiz-adv-x="2129" d="M41 68q0 -156 109.5 -265.5t265.5 -109.5h704v801h-213v288h213v246q0 155 103 264q104 107 309 107q112 0 205 -10l-8 -271h-185q-70 1 -95.5 -27t-25.5 -100v-209h314l-13 -288h-301v-801h291q157 0 264 110q111 108 111 265v1298q0 156 -111 264q-108 111 -264 111 h-1298q-155 0 -265 -110t-110 -265v-1298z" />
<glyph unicode="&#xc4;" horiz-adv-x="2129" d="M41 68q0 -156 109.5 -265.5t265.5 -109.5h704v801h-213v288h213v246q0 155 103 264q104 107 309 107q112 0 205 -10l-8 -271h-185q-70 1 -95.5 -27t-25.5 -100v-209h314l-13 -288h-301v-801h291q157 0 264 110q111 108 111 265v1298q0 156 -111 264q-108 111 -264 111 h-1298q-155 0 -265 -110t-110 -265v-1298z" />
<glyph unicode="&#xc5;" horiz-adv-x="2129" d="M41 68q0 -156 109.5 -265.5t265.5 -109.5h704v801h-213v288h213v246q0 155 103 264q104 107 309 107q112 0 205 -10l-8 -271h-185q-70 1 -95.5 -27t-25.5 -100v-209h314l-13 -288h-301v-801h291q157 0 264 110q111 108 111 265v1298q0 156 -111 264q-108 111 -264 111 h-1298q-155 0 -265 -110t-110 -265v-1298z" />
<glyph unicode="&#xc6;" horiz-adv-x="4259" d="M41 68q0 -156 109.5 -265.5t265.5 -109.5h704v801h-213v288h213v246q0 155 103 264q104 107 309 107q112 0 205 -10l-8 -271h-185q-70 1 -95.5 -27t-25.5 -100v-209h314l-13 -288h-301v-801h291q157 0 264 110q111 108 111 265v1298q0 156 -111 264q-108 111 -264 111 h-1298q-155 0 -265 -110t-110 -265v-1298zM2171 88q0 -163 116 -279t279 -116h1258q164 0 278 117q117 114 117 278v1258q0 164 -117 278q-114 117 -278 117h-1258q-163 0 -279 -116t-116 -279v-1258zM2771 866v203q254 83 291 383h203v-362h337v-224h-337v-366 q0 -121 14 -160t59 -61.5t96 -22.5q112 0 218 70v-224q-166 -77 -328 -77q-195 0 -301 94q-56 47 -75 97t-19 149v501h-158z" />
<glyph unicode="&#xc7;" horiz-adv-x="2347" d="M41 35q323 -209 713 -209q242 0 465 80q194 70 356.5 202t271.5 297.5t169.5 358t60.5 385.5v59q133 101 229 242q-135 -59 -266 -74q152 90 205 258q-141 -87 -295 -114q-138 147 -342 147q-125 0 -232 -62t-169 -169.5t-62 -233.5q0 -48 12 -106q-286 13 -533.5 141 t-424.5 346q-64 -106 -64 -235q0 -119 55.5 -220.5t151.5 -166.5q-113 3 -211 59v-4q0 -172 109 -299q111 -126 264 -160q-51 -14 -123 -14q-48 0 -86 8q43 -135 160 -229q122 -92 274 -95q-253 -198 -577 -198q-56 0 -111 6z" />
<glyph unicode="&#xc8;" horiz-adv-x="2129" d="M41 88q0 -163 116 -279t279 -116h1258q164 0 278 117q117 114 117 278v1258q0 164 -117 278q-114 117 -278 117h-1258q-163 0 -279 -116t-116 -279v-1258zM641 866v203q254 83 291 383h203v-362h338v-224h-338v-366q0 -121 14 -160t59.5 -61.5t96.5 -22.5q111 0 217 70 v-224q-166 -77 -328 -77q-195 0 -301 94q-56 47 -75 97t-19 149v501h-158z" />
<glyph unicode="&#xc9;" horiz-adv-x="2129" d="M41 88q0 -163 116 -279t279 -116h1258q164 0 278 117q117 114 117 278v1258q0 164 -117 278q-114 117 -278 117h-1258q-163 0 -279 -116t-116 -279v-1258zM641 866v203q254 83 291 383h203v-362h338v-224h-338v-366q0 -121 14 -160t59.5 -61.5t96.5 -22.5q111 0 217 70 v-224q-166 -77 -328 -77q-195 0 -301 94q-56 47 -75 97t-19 149v501h-158z" />
<glyph unicode="&#xca;" horiz-adv-x="2129" d="M41 88q0 -163 116 -279t279 -116h1258q164 0 278 117q117 114 117 278v1258q0 164 -117 278q-114 117 -278 117h-1258q-163 0 -279 -116t-116 -279v-1258zM641 866v203q254 83 291 383h203v-362h338v-224h-338v-366q0 -121 14 -160t59.5 -61.5t96.5 -22.5q111 0 217 70 v-224q-166 -77 -328 -77q-195 0 -301 94q-56 47 -75 97t-19 149v501h-158z" />
<glyph unicode="&#xcb;" horiz-adv-x="2129" d="M41 88q0 -163 116 -279t279 -116h1258q164 0 278 117q117 114 117 278v1258q0 164 -117 278q-114 117 -278 117h-1258q-163 0 -279 -116t-116 -279v-1258zM641 866v203q254 83 291 383h203v-362h338v-224h-338v-366q0 -121 14 -160t59.5 -61.5t96.5 -22.5q111 0 217 70 v-224q-166 -77 -328 -77q-195 0 -301 94q-56 47 -75 97t-19 149v501h-158z" />
<glyph unicode="&#xcc;" horiz-adv-x="1597" d="M57 -119q32 -99 126 -129t223 15q107 40 174 117t67 169v1004l725 168v-770q-126 21 -235 -31q-111 -52 -159 -146t-11 -192q35 -100 129 -131t223 16q108 40 174.5 118t62.5 169v1442l-1093 -238v-1212q-124 24 -240 -29q-109 -52 -156 -147.5t-10 -192.5z" />
<glyph unicode="&#xcd;" horiz-adv-x="1597" d="M57 -119q32 -99 126 -129t223 15q107 40 174 117t67 169v1004l725 168v-770q-126 21 -235 -31q-111 -52 -159 -146t-11 -192q35 -100 129 -131t223 16q108 40 174.5 118t62.5 169v1442l-1093 -238v-1212q-124 24 -240 -29q-109 -52 -156 -147.5t-10 -192.5z" />
<glyph unicode="&#xce;" horiz-adv-x="1597" d="M57 -119q32 -99 126 -129t223 15q107 40 174 117t67 169v1004l725 168v-770q-126 21 -235 -31q-111 -52 -159 -146t-11 -192q35 -100 129 -131t223 16q108 40 174.5 118t62.5 169v1442l-1093 -238v-1212q-124 24 -240 -29q-109 -52 -156 -147.5t-10 -192.5z" />
<glyph unicode="&#xcf;" horiz-adv-x="1597" d="M57 -119q32 -99 126 -129t223 15q107 40 174 117t67 169v1004l725 168v-770q-126 21 -235 -31q-111 -52 -159 -146t-11 -192q35 -100 129 -131t223 16q108 40 174.5 118t62.5 169v1442l-1093 -238v-1212q-124 24 -240 -29q-109 -52 -156 -147.5t-10 -192.5z" />
<glyph unicode="&#xd0;" horiz-adv-x="2756" d="M41 471l37 -186q13 -13 26 -13q27 0 27 13l43 186l-43 193q0 10 -27 10q-16 0 -26 -10zM307 471l33 -289q0 -15 16 -19q16 -6 31.5 -0.5t15.5 19.5l37 289l-37 444q0 14 -15 20q-16 5 -32 -0.5t-16 -19.5zM575 471l27 -289q0 -22 37 -22t37 28l33 283l-33 594 q0 27 -37 27t-37 -27zM842 471l22 -283q0 -28 43 -28t43 28l27 283l-27 600q0 27 -43 27t-43 -27zM1110 471l16 -278q3 -33 48 -33q49 0 49 33l20 278l-20 684q0 39 -49 39q-36 0 -48 -39zM1378 199q0 -39 37 -39h957q138 -6 241 94q103 103 103 238q0 131 -105 233 q-98 98 -239 98q-74 0 -134 -26q-18 221 -194 377q-176 159 -410 159q-118 0 -225 -39q-31 -12 -31 -37v-1058z" />
<glyph unicode="&#xd1;" horiz-adv-x="1650" d="M41 297q0 80 10 266q6 89 70 146t158 59q211 10 546 10q336 0 547 -10q94 -2 157 -58.5t70 -146.5q11 -225 11 -266q0 -40 -11 -268q-7 -87 -70 -143.5t-157 -61.5q-192 -8 -547 -8q-357 0 -546 8q-94 5 -158 62t-70 143q-10 189 -10 268zM162 537h110v-541h107v541h113 v92h-330v-92zM174 1659h135l84 -311h10l80 311h135l-100 -303q-8 -8 -53 -154v-325h-131v311q-5 23 -55 155zM489 70q0 -80 68 -80q54 0 111 57v-51h92v467h-92v-354q-30 -35 -58 -35q-24 0 -24 30v359h-97v-393zM612 1024v297q0 69 48.5 108t127.5 39q74 0 120 -40.5 t46 -108.5v-297q0 -75 -46 -117.5t-126 -42.5q-76 0 -123 44.5t-47 117.5zM735 1012q0 -47 47 -47q52 0 52 47v315q0 26 -25 36q-25 12 -49.5 1t-24.5 -37v-315zM854 -4h96v37q44 -41 90 -41q86 0 86 102v258q0 117 -90 117q-46 0 -86 -43v203h-96v-633zM950 84v293 q18 18 41 18q39 0 39 -47v-246q0 -36 -33 -36q-26 0 -47 18zM1053 973v481h118v-442q0 -25 15 -34q15 -10 39 1t49 39v436h117v-577h-117v65q-72 -72 -137 -72q-84 0 -84 103zM1200 129q0 -67 36 -106t101 -39q142 0 142 145v35h-97v-41q0 -57 -43 -57q-41 0 -41 65v88h181 v119q0 63 -35 100t-98 37t-104.5 -38.5t-41.5 -98.5v-209zM1298 291v51q0 51 43 51q41 0 41 -51v-51h-84z" />
<glyph unicode="&#xd2;" />
<glyph unicode="&#xd3;" />
<glyph unicode="&#xd4;" />
<glyph unicode="&#xd5;" />
<glyph unicode="&#xd6;" />
<glyph unicode="&#xd7;" />
<glyph unicode="&#xd8;" />
<glyph unicode="&#xd9;" />
<glyph unicode="&#xda;" />
<glyph unicode="&#xdb;" />
<glyph unicode="&#xdc;" />
<glyph unicode="&#xdd;" />
<glyph unicode="&#xde;" />
<glyph unicode="&#xdf;" />
<glyph unicode="&#xe0;" />
<glyph unicode="&#xe1;" />
<glyph unicode="&#xe2;" />
<glyph unicode="&#xe3;" />
<glyph unicode="&#xe4;" />
<glyph unicode="&#xe5;" />
<glyph unicode="&#xe6;" horiz-adv-x="2457" />
<glyph unicode="&#xe7;" />
<glyph unicode="&#xe8;" />
<glyph unicode="&#xe9;" />
<glyph unicode="&#xea;" />
<glyph unicode="&#xeb;" />
<glyph unicode="&#xec;" />
<glyph unicode="&#xed;" />
<glyph unicode="&#xee;" />
<glyph unicode="&#xef;" />
<glyph unicode="&#xf0;" />
<glyph unicode="&#xf1;" />
<glyph unicode="&#xf2;" />
<glyph unicode="&#xf3;" />
<glyph unicode="&#xf4;" />
<glyph unicode="&#xf5;" />
<glyph unicode="&#xf6;" />
<glyph unicode="&#xf7;" />
<glyph unicode="&#xf8;" />
<glyph unicode="&#xf9;" />
<glyph unicode="&#xfa;" />
<glyph unicode="&#xfb;" />
<glyph unicode="&#xfc;" />
<glyph unicode="&#xfd;" />
<glyph unicode="&#xfe;" />
<glyph unicode="&#xff;" />
<glyph unicode="&#x152;" horiz-adv-x="3358" d="M1270 88q0 -164 115.5 -279.5t279.5 -115.5h1257q165 0 279 117q117 114 117 278v1258q0 164 -117 278q-114 117 -279 117h-1257q-164 0 -279.5 -115.5t-115.5 -279.5v-1258zM1870 866v203q254 83 291 383h202v-362h338v-224h-338v-366q0 -120 15 -160q14 -39 59 -61.5 t96 -22.5q111 0 217 70v-224q-166 -77 -327 -77q-195 0 -301 94q-56 47 -75 97t-19 149v501h-158z" />
<glyph unicode="&#x153;" horiz-adv-x="2457" />
<glyph unicode="&#x178;" />
<glyph unicode="&#x2c6;" />
<glyph unicode="&#x2dc;" />
<glyph unicode="&#x2000;" horiz-adv-x="908" />
<glyph unicode="&#x2001;" horiz-adv-x="1816" />
<glyph unicode="&#x2002;" horiz-adv-x="908" />
<glyph unicode="&#x2003;" horiz-adv-x="1816" />
<glyph unicode="&#x2004;" horiz-adv-x="605" />
<glyph unicode="&#x2005;" horiz-adv-x="454" />
<glyph unicode="&#x2006;" horiz-adv-x="302" />
<glyph unicode="&#x2007;" horiz-adv-x="302" />
<glyph unicode="&#x2008;" horiz-adv-x="227" />
<glyph unicode="&#x2009;" horiz-adv-x="363" />
<glyph unicode="&#x200a;" horiz-adv-x="100" />
<glyph unicode="&#x2010;" />
<glyph unicode="&#x2011;" />
<glyph unicode="&#x2012;" />
<glyph unicode="&#x2013;" />
<glyph unicode="&#x2014;" />
<glyph unicode="&#x2018;" />
<glyph unicode="&#x2019;" />
<glyph unicode="&#x201a;" />
<glyph unicode="&#x201c;" horiz-adv-x="0" />
<glyph unicode="&#x201d;" horiz-adv-x="0" />
<glyph unicode="&#x201e;" />
<glyph unicode="&#x2022;" />
<glyph unicode="&#x2026;" />
<glyph unicode="&#x202f;" horiz-adv-x="363" />
<glyph unicode="&#x2039;" />
<glyph unicode="&#x203a;" />
<glyph unicode="&#x205f;" horiz-adv-x="454" />
<glyph unicode="&#x20ac;" />
<glyph unicode="&#x2122;" horiz-adv-x="3358" d="M1270 88q0 -164 115.5 -279.5t279.5 -115.5h1257q165 0 279 117q117 114 117 278v1258q0 164 -117 278q-114 117 -279 117h-1257q-164 0 -279.5 -115.5t-115.5 -279.5v-1258zM1491 999l213 191q361 316 428 -103q4 -25 12 -73q49 -300 75.5 -393t78.5 -93q46 0 139 146 q47 73 72.5 135t29 109t-22 73.5t-79.5 26.5q-42 0 -108 -23q62 202 206 292q115 73 232 44q109 -26 158 -128q34 -68 30 -159q-9 -213 -299 -583q-298 -387 -506 -387q-129 0 -217 235l-116 434q-65 236 -142 236q-14 0 -114 -70z" />
<glyph unicode="&#x25fc;" horiz-adv-x="500" d="M0 0z" />
<glyph unicode="&#xfb01;" horiz-adv-x="2457" />
<glyph unicode="&#xfb02;" horiz-adv-x="2457" />
</font>
</defs>
</svg>
